<svg width="46" height="46" viewBox="0 0 46 46" fill="none" xmlns="http://www.w3.org/2000/svg">
<path fill-rule="evenodd" clip-rule="evenodd" d="M13.5177 0.138C15.9704 0.0250909 16.7524 0 23 0C29.2476 0 30.0296 0.0271818 32.4802 0.138C34.9307 0.248818 36.6035 0.639818 38.0671 1.20645C39.5997 1.78564 40.9902 2.691 42.1402 3.86191C43.3111 5.00982 44.2144 6.39818 44.7915 7.93291C45.3602 9.39655 45.7491 11.0693 45.862 13.5156C45.9749 15.9725 46 16.7545 46 23C46 29.2476 45.9728 30.0296 45.862 32.4823C45.7512 34.9286 45.3602 36.6014 44.7915 38.065C44.2143 39.5999 43.3096 40.9906 42.1402 42.1402C40.9902 43.3111 39.5997 44.2144 38.0671 44.7915C36.6035 45.3602 34.9307 45.7491 32.4844 45.862C30.0296 45.9749 29.2476 46 23 46C16.7524 46 15.9704 45.9728 13.5177 45.862C11.0714 45.7512 9.39864 45.3602 7.935 44.7915C6.40011 44.2143 5.00944 43.3095 3.85982 42.1402C2.6897 40.9916 1.7842 39.6016 1.20645 38.0671C0.639818 36.6035 0.250909 34.9307 0.138 32.4844C0.0250909 30.0275 0 29.2455 0 23C0 16.7524 0.0271818 15.9704 0.138 13.5198C0.248818 11.0693 0.639818 9.39655 1.20645 7.93291C1.78506 6.39835 2.69125 5.00838 3.86191 3.85982C5.0099 2.68996 6.39917 1.78447 7.93291 1.20645C9.39655 0.639818 11.0693 0.250909 13.5156 0.138H13.5177ZM32.2941 4.278C29.8686 4.16718 29.141 4.14418 23 4.14418C16.859 4.14418 16.1314 4.16718 13.7059 4.278C11.4624 4.38045 10.2455 4.75473 9.43418 5.07045C8.36155 5.48864 7.59418 5.98418 6.78918 6.78918C6.02609 7.53156 5.43883 8.43532 5.07045 9.43418C4.75473 10.2455 4.38045 11.4624 4.278 13.7059C4.16718 16.1314 4.14418 16.859 4.14418 23C4.14418 29.141 4.16718 29.8686 4.278 32.2941C4.38045 34.5376 4.75473 35.7545 5.07045 36.5658C5.43845 37.5632 6.026 38.4685 6.78918 39.2108C7.53145 39.974 8.43682 40.5615 9.43418 40.9295C10.2455 41.2453 11.4624 41.6195 13.7059 41.722C16.1314 41.8328 16.8569 41.8558 23 41.8558C29.1431 41.8558 29.8686 41.8328 32.2941 41.722C34.5376 41.6195 35.7545 41.2453 36.5658 40.9295C37.6385 40.5114 38.4058 40.0158 39.2108 39.2108C39.974 38.4685 40.5615 37.5632 40.9295 36.5658C41.2453 35.7545 41.6195 34.5376 41.722 32.2941C41.8328 29.8686 41.8558 29.141 41.8558 23C41.8558 16.859 41.8328 16.1314 41.722 13.7059C41.6195 11.4624 41.2453 10.2455 40.9295 9.43418C40.5114 8.36155 40.0158 7.59418 39.2108 6.78918C38.4684 6.02615 37.5647 5.43889 36.5658 5.07045C35.7545 4.75473 34.5376 4.38045 32.2941 4.278ZM20.0623 30.0903C21.7029 30.7732 23.5298 30.8654 25.2309 30.3511C26.9319 29.8367 28.4016 28.7477 29.389 27.2701C30.3764 25.7926 30.8201 24.018 30.6445 22.2496C30.4688 20.4812 29.6846 18.8286 28.4259 17.5741C27.6235 16.7722 26.6533 16.1582 25.5851 15.7762C24.5169 15.3943 23.3773 15.2539 22.2483 15.3653C21.1194 15.4766 20.0291 15.8369 19.0561 16.4202C18.0831 17.0034 17.2516 17.7952 16.6213 18.7384C15.991 19.6816 15.5777 20.7529 15.4111 21.875C15.2445 22.9971 15.3288 24.1422 15.6579 25.2279C15.9869 26.3135 16.5526 27.3127 17.3142 28.1535C18.0758 28.9943 19.0144 29.6557 20.0623 30.0903ZM14.6405 14.6405C15.7383 13.5428 17.0416 12.672 18.4759 12.0778C19.9102 11.4837 21.4475 11.1779 23 11.1779C24.5525 11.1779 26.0898 11.4837 27.5241 12.0778C28.9584 12.672 30.2617 13.5428 31.3595 14.6405C32.4572 15.7383 33.328 17.0416 33.9222 18.4759C34.5163 19.9102 34.8221 21.4475 34.8221 23C34.8221 24.5525 34.5163 26.0898 33.9222 27.5241C33.328 28.9584 32.4572 30.2617 31.3595 31.3595C29.1424 33.5765 26.1354 34.8221 23 34.8221C19.8646 34.8221 16.8576 33.5765 14.6405 31.3595C12.4235 29.1424 11.1779 26.1354 11.1779 23C11.1779 19.8646 12.4235 16.8576 14.6405 14.6405ZM37.444 12.9385C37.716 12.6819 37.9338 12.3733 38.0845 12.031C38.2351 11.6887 38.3155 11.3197 38.321 10.9458C38.3264 10.5718 38.2568 10.2006 38.1162 9.85406C37.9756 9.50751 37.7669 9.1927 37.5025 8.92826C37.238 8.66382 36.9232 8.45513 36.5767 8.31454C36.2301 8.17394 35.8589 8.10431 35.485 8.10976C35.111 8.11522 34.742 8.19564 34.3997 8.34627C34.0574 8.49691 33.7488 8.71469 33.4922 8.98673C32.9931 9.51579 32.7199 10.2185 32.7305 10.9458C32.7411 11.673 33.0347 12.3675 33.549 12.8818C34.0633 13.3961 34.7577 13.6897 35.485 13.7003C36.2122 13.7109 36.9149 13.4376 37.444 12.9385Z" fill="white"/>
</svg>
