<svg width="46" height="46" viewBox="0 0 46 46" fill="none" xmlns="http://www.w3.org/2000/svg">
<path d="M44.16 0H1.84C0.82225 0 0 0.82225 0 1.84V44.16C0 45.1777 0.82225 46 1.84 46H44.16C45.1777 46 46 45.1777 46 44.16V1.84C46 0.82225 45.1777 0 44.16 0ZM42.32 42.32H31.7343V28.1865H37.7143L38.6113 21.2463H31.7343V16.813C31.7343 14.8005 32.292 13.432 35.1728 13.432H38.847V7.222C38.2087 7.13575 36.0295 6.946 33.488 6.946C28.1865 6.946 24.5582 10.1832 24.5582 16.123V21.2405H18.5667V28.1807H24.564V42.32H3.68V3.68H42.32V42.32Z" fill="white"/>
</svg>
