<svg width="46" height="46" viewBox="0 0 46 46" fill="none" xmlns="http://www.w3.org/2000/svg">
<path d="M42.3027 0H3.69725C1.656 0 0 1.656 0 3.69725V42.3027C0 44.344 1.656 46 3.69725 46H42.3027C44.344 46 46 44.344 46 42.3027V3.69725C46 1.656 44.344 0 42.3027 0ZM42.3027 42.32C16.5543 42.3143 3.68 42.3085 3.68 42.3027C3.68575 16.5543 3.6915 3.68 3.69725 3.68C29.4457 3.68575 42.32 3.6915 42.32 3.69725C42.3143 29.4457 42.3085 42.32 42.3027 42.32ZM6.8195 17.2442H13.6447V39.1978H6.8195V17.2442ZM10.235 14.2428C12.4143 14.2428 14.191 12.4718 14.191 10.2867C14.191 9.76724 14.0887 9.25282 13.8899 8.77285C13.6911 8.29289 13.3997 7.85678 13.0323 7.48944C12.665 7.12209 12.2289 6.83069 11.7489 6.63188C11.2689 6.43307 10.7545 6.33075 10.235 6.33075C9.71549 6.33075 9.20107 6.43307 8.7211 6.63188C8.24114 6.83069 7.80503 7.12209 7.43769 7.48944C7.07034 7.85678 6.77894 8.29289 6.58013 8.77285C6.38133 9.25282 6.279 9.76724 6.279 10.2867C6.27325 12.4718 8.04425 14.2428 10.235 14.2428ZM24.7423 28.336C24.7423 25.4725 25.2885 22.701 28.8363 22.701C32.3322 22.701 32.384 25.9727 32.384 28.52V39.1978H39.2035V27.1572C39.2035 21.2463 37.927 16.698 31.0212 16.698C27.7035 16.698 25.4783 18.5208 24.564 20.2458H24.472V17.2442H17.9228V39.1978H24.7423V28.336Z" fill="white"/>
</svg>
