<svg width="108" height="123" viewBox="0 0 108 123" fill="none" xmlns="http://www.w3.org/2000/svg">
<path d="M103.686 103.74H102.954V103.451H104.763V103.74H104.028V105.747H103.686V103.74Z" fill="white"/>
<path d="M107.063 104.788C107.063 104.367 107.067 103.934 107.077 103.689H107.067C106.966 104.078 106.623 105.023 106.367 105.743H106.065C105.87 105.149 105.517 104.089 105.412 103.685H105.401C105.419 103.952 105.427 104.453 105.427 104.846V105.743H105.109V103.448H105.618C105.863 104.14 106.158 105.026 106.238 105.329H106.241C106.295 105.095 106.648 104.122 106.904 103.448H107.398V105.743H107.067V104.788H107.063Z" fill="white"/>
<path d="M102.817 109.993C102.702 105.917 99.5874 105.704 96.5165 105.65C93.7809 105.599 89.0808 105.599 86.3451 105.65C83.2743 105.704 80.1601 105.917 80.0448 109.993C80.0448 109.993 79.915 112.433 79.915 114.697C79.915 116.65 80.0448 118.474 80.0448 118.474C80.1601 122.551 83.2743 122.763 86.3451 122.817C89.0808 122.868 93.7809 122.868 96.5165 122.817C99.5874 122.763 102.702 122.551 102.817 118.474C102.817 118.474 102.947 116.034 102.947 113.77C102.947 111.813 102.817 109.993 102.817 109.993ZM97.7636 116.355C97.6987 118.398 95.9687 118.503 94.2602 118.532C92.7392 118.557 90.1225 118.557 88.6014 118.532C86.893 118.503 85.1593 118.398 85.0981 116.355C85.0981 116.355 85.026 115.443 85.026 114.462C85.026 113.331 85.0981 112.105 85.0981 112.105C85.1593 110.062 86.893 109.957 88.6014 109.932C90.1225 109.907 92.7392 109.907 94.2602 109.932C95.9687 109.961 97.7023 110.065 97.7636 112.105C97.7636 112.105 97.8357 113.017 97.8357 113.998C97.8357 115.133 97.7636 116.355 97.7636 116.355Z" fill="white"/>
<path d="M73.3734 116.142L73.3662 116.899C73.3662 117.865 72.8652 118.622 71.3261 118.622C71.3261 118.622 68.385 118.676 67.401 118.676C64.4527 118.676 63.8075 118.528 63.7318 118.517C63.0038 118.427 62.5172 117.908 62.3334 117.205C62.1351 116.445 62.182 115.349 62.182 114.39C62.182 113.01 62.2036 112.321 62.3406 111.37C62.4631 110.519 63.1912 109.863 64.0779 109.863C64.0779 109.863 65.9197 109.755 67.8083 109.755C69.7835 109.755 71.8091 109.863 71.8091 109.863C72.5084 109.863 73.0778 110.429 73.0778 111.128V111.806L78.1888 111.813C78.1815 110.768 78.1671 109.989 78.1671 109.989C78.0698 106.27 75.3846 105.7 72.5156 105.646C69.9637 105.596 65.5628 105.502 63.0182 105.704C60.5636 105.898 57.3089 105.942 57.2008 110.018C57.2008 110.018 57.0566 112.17 57.0566 114.43C57.0566 116.383 57.1431 118.467 57.1431 118.467C57.5865 122.41 60.1491 122.522 63.011 122.716C65.5304 122.889 69.9961 122.864 72.4975 122.738C78.9096 122.41 78.4194 120.298 78.4807 116.131L73.3734 116.142Z" fill="white"/>
<path d="M55.6329 105.848V122.612H50.659V110.025H49.8516L43.5621 122.612H39.2369L32.9473 110.025H32.14V122.612H27.166V105.844H36.4219L41.3995 116.838L46.3806 105.848H55.6329Z" fill="white"/>
<path d="M16.9295 105.841H8.94592L0 122.612H5.94713L7.45373 119.782H18.3027L19.7877 122.612H25.7348L16.9295 105.841ZM9.39646 116.142L12.7917 109.777H13.0476L16.3888 116.142H9.39646Z" fill="white"/>
<path d="M102.911 57.0493H89.8273C86.9294 57.0493 84.5073 54.8759 84.1938 51.996L83.6279 46.7517H76.3472L75.7813 51.9924C75.4677 54.8759 73.0456 57.0493 70.1477 57.0493H61.1802C58.2823 57.0493 55.8602 54.8759 55.5466 51.996L54.9808 46.7517H47.7L47.1342 51.9924C46.8206 54.8759 44.3985 57.0493 41.5006 57.0493H32.5403C29.6352 57.0493 27.2131 54.8723 26.9067 51.9816L26.3553 46.7517H19.0854L18.5339 51.9816C18.2275 54.8723 15.8054 57.0529 12.8967 57.0529H0.0761719V50.4462H12.0533L12.6048 45.2163C12.9112 42.3256 15.3333 40.145 18.2383 40.145H27.1951C30.1001 40.145 32.5223 42.322 32.8286 45.2127L33.3837 50.4426H40.6572L41.2231 45.2019C41.5367 42.3184 43.9588 40.145 46.8566 40.145H55.8242C58.722 40.145 61.1441 42.3184 61.4577 45.1983L62.0236 50.4426H69.3043L69.8702 45.2019C70.1838 42.3184 72.6059 40.145 75.5037 40.145H84.4713C87.3692 40.145 89.7913 42.3184 90.1048 45.1983L90.6707 50.4426H102.911V57.0493Z" fill="#FFA400"/>
<path d="M64.0309 1.48498C63.6164 7.89346 58.2856 12.9467 51.7618 12.9467C45.3209 12.9467 40.0226 7.99438 39.5107 1.65078C43.5223 0.562274 47.7142 0 52.0574 0C56.1879 0 60.1995 0.511813 64.0309 1.48498Z" fill="white"/>
<path d="M91.7877 20.541C82.5246 25.6447 68.4209 29.3103 51.4806 29.3103C35.0521 29.3103 21.28 25.8574 12.0133 21.0024C10.1319 23.6948 8.52795 26.5855 7.24121 29.6383C18.4218 35.5818 33.9925 39.215 51.4806 39.215C69.4481 39.215 85.4153 35.3692 96.6427 29.1265C95.3235 26.0917 93.6872 23.219 91.7877 20.541Z" fill="white"/>
<path d="M73.8885 5.1687C68.5865 11.7069 60.5129 15.9024 51.4804 15.9024C42.6462 15.9024 34.7204 11.8908 29.4184 5.59761C26.4629 7.13305 23.7056 8.96765 21.1465 11.0978C28.247 20.0654 39.2113 25.8106 51.4804 25.8106C64.0126 25.8106 75.1752 19.7986 82.2613 10.5211C79.6698 8.45584 76.8765 6.65368 73.8885 5.1687Z" fill="white"/>
<path d="M64.0309 95.6226C63.6164 89.2141 58.2856 84.1609 51.7618 84.1609C45.3209 84.1609 40.0226 89.1132 39.5107 95.4568C43.5223 96.5453 47.7178 97.1076 52.061 97.1076C56.1879 97.1076 60.1995 96.5958 64.0309 95.6226Z" fill="white"/>
<path d="M91.7877 76.5665C82.5246 71.4628 68.4209 67.7972 51.4806 67.7972C35.0521 67.7972 21.28 71.2465 12.0133 76.1015C10.1319 73.4091 8.52795 70.5184 7.24121 67.4656C18.4218 61.5221 33.9925 57.8889 51.4806 57.8889C69.4481 57.8889 85.4153 61.7383 96.6427 67.9774C95.3235 71.0158 93.6872 73.8921 91.7877 76.5665Z" fill="white"/>
<path d="M73.8885 91.9391C68.5865 85.4008 60.5129 81.2054 51.4804 81.2054C42.6462 81.2054 34.7204 85.217 29.4184 91.5101C26.4629 89.9747 23.7056 88.1401 21.1465 86.01C28.247 77.0424 39.2113 71.2971 51.4804 71.2971C64.0126 71.2971 75.1752 77.3091 82.2613 86.5902C79.6698 88.6519 76.8765 90.4541 73.8885 91.9391Z" fill="white"/>
</svg>
