<svg width="228" height="100" viewBox="0 0 228 100" fill="none" xmlns="http://www.w3.org/2000/svg">
<path d="M224.216 40.0959H223.471V39.8013H225.315V40.0959H224.569V42.147H224.216V40.0959Z" fill="#E8E8C1"/>
<path d="M227.657 41.1677C227.657 40.7369 227.661 40.295 227.672 40.0446H227.661C227.558 40.4423 227.209 41.4071 226.948 42.1436H226.639C226.441 41.536 226.081 40.4533 225.975 40.0409H225.964C225.982 40.3134 225.989 40.8253 225.989 41.2267V42.1436H225.666V39.7979H226.184C226.434 40.5049 226.735 41.4108 226.816 41.7201H226.819C226.874 41.4807 227.234 40.4865 227.495 39.7979H227.998V42.1436H227.661V41.1677H227.657Z" fill="#E8E8C1"/>
<path d="M223.331 46.4853C223.214 42.3205 220.04 42.1032 216.911 42.0479C214.123 41.9964 209.333 41.9964 206.545 42.0479C203.416 42.1032 200.242 42.3205 200.124 46.4853C200.124 46.4853 199.992 48.9783 199.992 51.2909C199.992 53.2868 200.124 55.1502 200.124 55.1502C200.242 59.315 203.416 59.5323 206.545 59.5875C209.333 59.6391 214.123 59.6391 216.911 59.5875C220.04 59.5323 223.214 59.315 223.331 55.1502C223.331 55.1502 223.464 52.6571 223.464 50.3445C223.464 48.345 223.331 46.4853 223.331 46.4853ZM218.182 52.9849C218.115 55.0728 216.352 55.1796 214.611 55.2091C213.061 55.2349 210.395 55.2349 208.844 55.2091C207.103 55.1796 205.337 55.0728 205.274 52.9849C205.274 52.9849 205.201 52.0532 205.201 51.0516C205.201 49.8953 205.274 48.6432 205.274 48.6432C205.337 46.5553 207.103 46.4485 208.844 46.4227C210.395 46.3969 213.061 46.3969 214.611 46.4227C216.352 46.4522 218.119 46.559 218.182 48.6432C218.182 48.6432 218.255 49.5749 218.255 50.5765C218.255 51.7365 218.182 52.9849 218.182 52.9849Z" fill="#E8E8C1"/>
<path d="M193.326 52.7676L193.318 53.5409C193.318 54.5278 192.808 55.3011 191.239 55.3011C191.239 55.3011 188.242 55.3564 187.239 55.3564C184.235 55.3564 183.577 55.2054 183.5 55.1944C182.758 55.1023 182.262 54.572 182.075 53.8539C181.873 53.0769 181.92 51.9575 181.92 50.9779C181.92 49.5675 181.942 48.8642 182.082 47.892C182.207 47.0229 182.949 46.3527 183.853 46.3527C183.853 46.3527 185.729 46.2423 187.654 46.2423C189.667 46.2423 191.731 46.3527 191.731 46.3527C192.444 46.3527 193.024 46.9309 193.024 47.6453V48.3376L198.233 48.345C198.225 47.277 198.211 46.4816 198.211 46.4816C198.112 42.6813 195.375 42.0995 192.451 42.0442C189.851 41.9927 185.366 41.8969 182.773 42.1032C180.271 42.302 176.954 42.3462 176.844 46.5111C176.844 46.5111 176.697 48.7095 176.697 51.0184C176.697 53.0143 176.785 55.1428 176.785 55.1428C177.237 59.1714 179.849 59.2856 182.765 59.4844C185.333 59.6612 189.884 59.6354 192.433 59.5065C198.967 59.1714 198.468 57.0135 198.53 52.7566L193.326 52.7676Z" fill="#E8E8C1"/>
<path d="M175.245 42.2503V59.3774H170.176V46.5182H169.353L162.943 59.3774H158.536L152.126 46.5182H151.303V59.3774H146.234V42.2466H155.667L160.74 53.4781L165.816 42.2503H175.245Z" fill="#E8E8C1"/>
<path d="M135.803 42.2432H127.667L118.551 59.3777H124.611L126.147 56.4869H137.203L138.716 59.3777H144.777L135.803 42.2432ZM128.127 52.7677L131.587 46.2644H131.848L135.253 52.7677H128.127Z" fill="#E8E8C1"/>
<path d="M104.798 58.2862H91.4647C88.5115 58.2862 86.0431 56.0656 85.7235 53.1233L85.1469 47.7654H77.7271L77.1505 53.1197C76.8309 56.0656 74.3626 58.2862 71.4094 58.2862H62.2706C59.3174 58.2862 56.8491 56.0656 56.5295 53.1233L55.9528 47.7654H48.5331L47.9564 53.1197C47.6368 56.0656 45.1685 58.2862 42.2153 58.2862H33.0839C30.1234 58.2862 27.655 56.062 27.3428 53.1086L26.7808 47.7654H19.3721L18.8101 53.1086C18.4979 56.062 16.0295 58.2898 13.0653 58.2898H0V51.5399H12.2058L12.7678 46.1966C13.08 43.2433 15.5484 41.0154 18.5089 41.0154H27.6366C30.5972 41.0154 33.0655 43.2396 33.3778 46.1929L33.9434 51.5362H41.3558L41.9325 46.1819C42.252 43.2359 44.7204 41.0154 47.6736 41.0154H56.8123C59.7655 41.0154 62.2339 43.2359 62.5534 46.1782L63.1301 51.5362H70.5498L71.1265 46.1819C71.4461 43.2359 73.9144 41.0154 76.8676 41.0154H86.0064C88.9596 41.0154 91.4279 43.2359 91.7475 46.1782L92.3242 51.5362H104.798V58.2862Z" fill="#EFA220"/>
<path d="M65.1758 1.51718C64.7534 8.0646 59.3208 13.2274 52.6725 13.2274C46.1086 13.2274 40.7091 8.16771 40.1875 1.68657C44.2757 0.574465 48.5475 0 52.9737 0C57.1831 0 61.2713 0.52291 65.1758 1.51718Z" fill="#E8E8C1"/>
<path d="M93.4634 20.9863C84.0234 26.2007 69.6505 29.9458 52.3868 29.9458C35.6446 29.9458 21.6096 26.418 12.166 21.4577C10.2486 24.2085 8.61404 27.1618 7.30273 30.2809C18.6968 36.3533 34.5647 40.0652 52.3868 40.0652C70.6973 40.0652 86.9693 36.136 98.4111 29.758C97.0667 26.6573 95.3991 23.7224 93.4634 20.9863Z" fill="#E8E8C1"/>
<path d="M75.2216 5.28052C69.8184 11.9605 61.5906 16.2469 52.3857 16.2469C43.3829 16.2469 35.3057 12.1483 29.9025 5.71873C26.8905 7.28746 24.0806 9.16184 21.4727 11.3382C28.7087 20.5002 39.8824 26.37 52.3857 26.37C65.1572 26.37 76.5329 20.2277 83.7543 10.749C81.1133 8.63893 78.2666 6.79769 75.2216 5.28052Z" fill="#E8E8C1"/>
<path d="M65.1758 97.6961C64.7534 91.1487 59.3208 85.9858 52.6725 85.9858C46.1086 85.9858 40.7091 91.0455 40.1875 97.5267C44.2757 98.6388 48.5512 99.2133 52.9773 99.2133C57.1831 99.2133 61.2713 98.6903 65.1758 97.6961Z" fill="#E8E8C1"/>
<path d="M93.4634 78.2266C84.0234 73.0122 69.6505 69.2671 52.3868 69.2671C35.6446 69.2671 21.6096 72.7913 12.166 77.7516C10.2486 75.0008 8.61404 72.0474 7.30273 68.9284C18.6968 62.856 34.5647 59.144 52.3868 59.144C70.6973 59.144 86.9693 63.0769 98.4111 69.4513C97.0667 72.5556 95.3991 75.4942 93.4634 78.2266Z" fill="#E8E8C1"/>
<path d="M75.2216 93.9323C69.8184 87.2523 61.5906 82.9659 52.3857 82.9659C43.3829 82.9659 35.3057 87.0645 29.9025 93.4941C26.8905 91.9253 24.0806 90.0509 21.4727 87.8746C28.7087 78.7126 39.8824 72.8428 52.3857 72.8428C65.1572 72.8428 76.5329 78.9851 83.7543 88.4675C81.1133 90.5739 78.2666 92.4151 75.2216 93.9323Z" fill="#E8E8C1"/>
</svg>
