<svg width="42" height="42" viewBox="0 0 42 42" fill="none" xmlns="http://www.w3.org/2000/svg">
<path d="M2.45977 7.12148L7.86797 1.71836C8.52813 1.0582 9.41172 0.6875 10.3461 0.6875C11.2805 0.6875 12.1641 1.05313 12.8242 1.71836L18.6488 7.53281C19.309 8.19297 19.6797 9.08164 19.6797 10.016C19.6797 10.9555 19.3141 11.834 18.6488 12.4992L14.0988 17.0543C15.1354 19.4694 16.6247 21.6637 18.4863 23.5187C20.35 25.3926 22.5285 26.8703 24.9457 27.9164L29.4957 23.3613C30.1559 22.7012 31.0395 22.3305 31.9738 22.3305C32.4347 22.3288 32.8913 22.4191 33.3168 22.5961C33.7423 22.7731 34.1283 23.0333 34.452 23.3613L40.2816 29.1758C40.9418 29.8359 41.3125 30.7246 41.3125 31.659C41.3125 32.5984 40.9469 33.477 40.2816 34.1422L34.8785 39.5453C33.7512 40.6727 32.1973 41.3176 30.6027 41.3176C30.2727 41.3176 29.9527 41.2922 29.6277 41.2363C22.9043 40.1293 16.2316 36.5492 10.8438 31.1664C5.46094 25.7734 1.88594 19.1008 0.768749 12.3723C0.448827 10.4629 1.08867 8.49766 2.45977 7.12148V7.12148ZM4.36914 11.768C5.35938 17.7551 8.57891 23.727 13.4285 28.5766C18.2781 33.4262 24.2449 36.6457 30.232 37.6359C30.9836 37.7629 31.7555 37.509 32.3039 36.9656L37.6105 31.659L31.984 26.0273L25.9004 32.1211L25.8547 32.1668L24.7578 31.7605C21.432 30.5378 18.4119 28.6064 15.9067 26.1004C13.4015 23.5943 11.4712 20.5735 10.2496 17.2473L9.84336 16.1504L15.9777 10.0211L10.3512 4.38945L5.04453 9.69609C4.49609 10.2445 4.24219 11.0164 4.36914 11.768Z" fill="white"/>
</svg>
