<svg width="38" height="51" viewBox="0 0 38 51" fill="none" xmlns="http://www.w3.org/2000/svg">
<path d="M18.7813 12.457C17.4462 12.457 16.1412 12.8529 15.0312 13.5946C13.9211 14.3363 13.056 15.3905 12.5451 16.6239C12.0342 17.8573 11.9005 19.2145 12.161 20.5239C12.4214 21.8333 13.0643 23.036 14.0083 23.98C14.9523 24.924 16.155 25.5669 17.4644 25.8273C18.7738 26.0878 20.131 25.9541 21.3644 25.4432C22.5978 24.9323 23.652 24.0672 24.3937 22.9571C25.1354 21.8471 25.5313 20.5421 25.5313 19.207C25.5292 17.4174 24.8174 15.7017 23.552 14.4363C22.2865 13.1709 20.5708 12.4591 18.7813 12.457V12.457ZM18.7813 22.582C18.1137 22.582 17.4612 22.3841 16.9062 22.0132C16.3512 21.6424 15.9186 21.1153 15.6632 20.4986C15.4077 19.8819 15.3409 19.2033 15.4711 18.5486C15.6013 17.8939 15.9228 17.2925 16.3948 16.8205C16.8668 16.3485 17.4681 16.0271 18.1228 15.8969C18.7775 15.7667 19.4561 15.8335 20.0728 16.0889C20.6895 16.3444 21.2166 16.777 21.5875 17.332C21.9583 17.887 22.1563 18.5395 22.1563 19.207C22.1552 20.1018 21.7993 20.9597 21.1666 21.5924C20.5339 22.2251 19.676 22.581 18.7813 22.582V22.582Z" fill="white"/>
<path d="M31.7519 6.22623C28.5449 3.02003 24.2639 1.11541 19.7352 0.87998C15.2065 0.644546 10.751 2.09498 7.22885 4.95136C3.70666 7.80773 1.36737 11.8675 0.662466 16.3473C-0.0424351 20.827 0.937023 25.409 3.41181 29.209L16.1637 48.7854C16.4475 49.221 16.8355 49.5789 17.2926 49.8267C17.7496 50.0744 18.2613 50.2042 18.7812 50.2042C19.3011 50.2042 19.8127 50.0744 20.2698 49.8267C20.7269 49.5789 21.1149 49.221 21.3987 48.7854L34.151 29.209C36.4473 25.684 37.4621 21.4767 37.0253 17.2924C36.5885 13.1081 34.7267 9.20107 31.7519 6.22623V6.22623ZM31.3232 27.3668L18.7812 46.6201L6.23921 27.3668C2.40015 21.4733 3.22354 13.5864 8.19703 8.61268C9.58695 7.22271 11.237 6.12013 13.0531 5.36789C14.8691 4.61564 16.8156 4.22847 18.7812 4.22847C20.7469 4.22847 22.6933 4.61564 24.5094 5.36789C26.3254 6.12013 27.9755 7.22271 29.3654 8.61268C34.3389 13.5864 35.1622 21.4733 31.3232 27.3668Z" fill="white"/>
</svg>
